<?xml version="1.0" encoding="UTF-8"?>
<svg width="32" height="32" viewBox="0 0 32 32" fill="none" xmlns="http://www.w3.org/2000/svg">
  <rect width="32" height="32" rx="6" fill="#FF6B6B"/>
  <path d="M16 6C13.5 6 11.5 8 11.5 10.5C11.5 13 13 14.5 14.5 16C16 17.5 17.5 19 17.5 21.5C17.5 22.9 16.9 24.1 16 25M16 25C15.1 24.1 14.5 22.9 14.5 21.5C14.5 19 16 17.5 17.5 16C19 14.5 20.5 13 20.5 10.5C20.5 8 18.5 6 16 6M16 25V26" stroke="white" stroke-width="2" stroke-linecap="round" stroke-linejoin="round"/>
  <path d="M13 21.5C13 23.99 14.35 26 16 26C17.65 26 19 23.99 19 21.5C19 19.01 16 17 16 17C16 17 13 19.01 13 21.5Z" fill="white"/>
</svg>
