<?xml version="1.0" encoding="UTF-8"?>
<svg width="1440" height="1024" viewBox="0 0 1440 1024" fill="none" xmlns="http://www.w3.org/2000/svg">
  <g opacity="0.15">
    <path d="M1440 0H0V1024H1440V0Z" fill="url(#paint0_radial)"/>
    <g opacity="0.4">
      <path fill-rule="evenodd" clip-rule="evenodd" d="M0 341.333L48 364.089C96 386.844 192 432.356 288 409.6C384 386.844 480 295.822 576 250.311C672 204.8 768 204.8 864 227.556C960 250.311 1056 295.822 1152 318.578C1248 341.333 1344 341.333 1392 341.333H1440V0H1392C1344 0 1248 0 1152 0C1056 0 960 0 864 0C768 0 672 0 576 0C480 0 384 0 288 0C192 0 96 0 48 0H0V341.333Z" fill="url(#paint1_linear)"/>
    </g>
  </g>
  <defs>
    <radialGradient id="paint0_radial" cx="0" cy="0" r="1" gradientUnits="userSpaceOnUse" gradientTransform="translate(720 512) rotate(90) scale(512 720)">
      <stop stop-color="#f97316" stop-opacity="0.2"/>
      <stop offset="1" stop-color="white" stop-opacity="0"/>
    </radialGradient>
    <linearGradient id="paint1_linear" x1="720" y1="0" x2="720" y2="409.6" gradientUnits="userSpaceOnUse">
      <stop stop-color="#1e3a8a"/>
      <stop offset="1" stop-color="#f97316"/>
    </linearGradient>
  </defs>
</svg>
